<svg version="1.1" xmlns="http://www.w3.org/2000/svg" xmlns:xlink="http://www.w3.org/1999/xlink" x="0px" y="0px" viewBox="0 0 48 48" enable-background="new 0 0 48 48" xml:space="preserve">
<path fill="#455A64" d="M40,42c0,1.657-1.344,3-3,3H11c-1.657,0-3-1.343-3-3V6c0-1.657,1.343-3,3-3h26c1.656,0,3,1.343,3,3V42z"/>
<g>
	<circle fill="#37474F" cx="15" cy="9" r="3"/>
	<circle fill="#37474F" cx="24" cy="9" r="3"/>
	<circle fill="#37474F" cx="33" cy="9" r="3"/>
	<polyline fill="#37474F" points="18,36 18,42 12,42 12,36 &#9;"/>
	<polyline fill="#37474F" points="27,36 27,42 21,42 21,36 &#9;"/>
	<polyline fill="#37474F" points="36,36 36,42 30,42 30,36 &#9;"/>
	<polyline fill="#37474F" points="18,26 18,32 12,32 12,26 &#9;"/>
	<polyline fill="#37474F" points="27,26 27,32 21,32 21,26 &#9;"/>
	<polyline fill="#37474F" points="36,26 36,32 30,32 30,26 &#9;"/>
	<polyline fill="#37474F" points="18,16 18,22 12,22 12,16 &#9;"/>
	<polyline fill="#37474F" points="27,16 27,22 21,22 21,16 &#9;"/>
	<polyline fill="#37474F" points="36,16 36,22 30,22 30,16 &#9;"/>
</g>
<rect x="21" y="34" fill="#FF1744" width="6" height="6"/>
<g>
	<rect x="12" y="14" fill="#64B5F6" width="6" height="6"/>
	<rect x="21" y="14" fill="#64B5F6" width="6" height="6"/>
	<rect x="30" y="14" fill="#64B5F6" width="6" height="6"/>
	<rect x="12" y="24" fill="#64B5F6" width="6" height="6"/>
	<rect x="21" y="24" fill="#64B5F6" width="6" height="6"/>
	<rect x="30" y="24" fill="#64B5F6" width="6" height="6"/>
	<rect x="12" y="34" fill="#64B5F6" width="6" height="6"/>
	<rect x="30" y="34" fill="#64B5F6" width="6" height="6"/>
</g>
<g>
	<circle fill="#64FFDA" cx="15" cy="9" r="2"/>
	<circle fill="#64FFDA" cx="24" cy="9" r="2"/>
	<circle fill="#64FFDA" cx="33" cy="9" r="2"/>
</g>
</svg>