<svg x="0" y="0" version="1.1" xmlns="http://www.w3.org/2000/svg" xmlns:xlink="http://www.w3.org/1999/xlink" viewBox="0 0 48 48" ><g fill="none" stroke="none" stroke-width="1" stroke-linecap="butt" stroke-linejoin="miter" stroke-miterlimit="10" stroke-dasharray="" stroke-dashoffset="0" font-family="sans-serif" font-weight="normal" font-size="12" text-anchor="start" mix-blend-mode="normal"><g><g><path d="M0,48l0,-48l48,0l0,48z" fill="none"/><g><path d="M40,42c0,1.657 -1.344,3 -3,3l-26,0c-1.657,0 -3,-1.343 -3,-3l0,-36c0,-1.657 1.343,-3 3,-3l26,0c1.656,0 3,1.343 3,3z" fill="#455a64"/><g fill="#37474f"><circle cx="15" cy="9" transform="scale(1,1)" r="3"/><circle cx="24" cy="9" transform="scale(1,1)" r="3"/><circle cx="33" cy="9" transform="scale(1,1)" r="3"/><path d="M18,36l0,6l-6,0l0,-6"/><path d="M27,36l0,6l-6,0l0,-6"/><path d="M36,36l0,6l-6,0l0,-6"/><path d="M18,26l0,6l-6,0l0,-6"/><path d="M27,26l0,6l-6,0l0,-6"/><path d="M36,26l0,6l-6,0l0,-6"/><path d="M18,16l0,6l-6,0l0,-6"/><path d="M27,16l0,6l-6,0l0,-6"/><path d="M36,16l0,6l-6,0l0,-6"/></g><rect x="21" y="34" transform="scale(1,1)" width="6" height="6" fill="#ff1744"/><g fill="#64b5f6"><rect x="12" y="14" transform="scale(1,1)" width="6" height="6"/><rect x="21" y="14" transform="scale(1,1)" width="6" height="6"/><rect x="30" y="14" transform="scale(1,1)" width="6" height="6"/><rect x="12" y="24" transform="scale(1,1)" width="6" height="6"/><rect x="21" y="24" transform="scale(1,1)" width="6" height="6"/><rect x="30" y="24" transform="scale(1,1)" width="6" height="6"/><rect x="12" y="34" transform="scale(1,1)" width="6" height="6"/><rect x="30" y="34" transform="scale(1,1)" width="6" height="6"/></g><g fill="#64ffda"><circle cx="15" cy="9" transform="scale(1,1)" r="2"/><circle cx="24" cy="9" transform="scale(1,1)" r="2"/><circle cx="33" cy="9" transform="scale(1,1)" r="2"/></g></g><g><g id="IOS_copy"><path d="M48,38c0,5.5 -4.5,10 -10,10c-5.5,0 -10,-4.5 -10,-10c0,-5.5 4.5,-10 10,-10c5.5,0 10,4.5 10,10" fill="#43a047"/><path d="M44,36l-4,0l0,-4l-4,0l0,4l-4,0l0,4l4,0l0,4l4,0l0,-4l4,0z" fill="#ffffff"/></g><path d="M27.16571,38c0,-5.98361 4.85067,-10.83429 10.83429,-10.83429c5.98361,0 10.83429,4.85067 10.83429,10.83429c0,5.98361 -4.85067,10.83429 -10.83429,10.83429c-5.98361,0 -10.83429,-4.85067 -10.83429,-10.83429z" fill="#ff0000" opacity="0"/></g></g></g></g></svg>