<svg version="1.1" id="Layer_1" xmlns="http://www.w3.org/2000/svg" xmlns:xlink="http://www.w3.org/1999/xlink" x="0px" y="0px" viewBox="0 0 40 40" style="enable-background:new 0 0 40 40;" xml:space="preserve">
<g>
	<path style="fill:#BAE0BD;" d="M1.838,23.5C1.613,22.333,1.5,21.157,1.5,20c0-4.673,1.759-9.138,4.953-12.572l0.328-0.353&#10;&#9;&#9;L4.207,4.5H12.5v8.293L9.607,9.9l-0.353,0.389C6.833,12.962,5.5,16.411,5.5,20c0,1.174,0.146,2.349,0.433,3.5H1.838z"/>
	<path style="fill:#5E9C76;" d="M12,5v6.586l-1.668-1.668L9.589,9.175L8.884,9.954C6.379,12.718,5,16.286,5,20&#10;&#9;&#9;c0,1.005,0.103,2.009,0.306,3h-3.05C2.086,21.998,2,20.992,2,20c0-4.546,1.712-8.89,4.819-12.232l0.657-0.706L6.794,6.38L5.414,5&#10;&#9;&#9;H12 M13,4H3l3.087,3.087C2.936,10.475,1,15.007,1,20c0,1.373,0.153,2.709,0.43,4h5.158C6.21,22.732,6,21.391,6,20&#10;&#9;&#9;c0-3.612,1.377-6.894,3.625-9.375L13,14V4L13,4z"/>
</g>
<g>
	<path style="fill:#BAE0BD;" d="M27.207,12.5L30.1,9.607l-0.389-0.353C27.038,6.833,23.589,5.5,20,5.5&#10;&#9;&#9;c-1.174,0-2.348,0.146-3.5,0.433V1.838C17.668,1.614,18.844,1.5,20,1.5c4.673,0,9.139,1.759,12.572,4.954l0.354,0.328L35.5,4.207&#10;&#9;&#9;V12.5H27.207z"/>
	<path style="fill:#5E9C76;" d="M20,2c4.546,0,8.89,1.712,12.232,4.819l0.706,0.657l0.682-0.682L35,5.414V12h-6.586l1.668-1.668&#10;&#9;&#9;l0.743-0.743l-0.779-0.705C27.282,6.379,23.714,5,20,5c-1.005,0-2.009,0.103-3,0.306v-3.05C18.002,2.086,19.008,2,20,2 M20,1&#10;&#9;&#9;c-1.373,0-2.709,0.153-4,0.43v5.158C17.268,6.21,18.609,6,20,6c3.612,0,6.894,1.377,9.375,3.625L26,13h10V3l-3.087,3.087&#10;&#9;&#9;C29.525,2.936,24.993,1,20,1L20,1z"/>
</g>
<g>
	<path style="fill:#BAE0BD;" d="M27.5,35.5v-8.293l2.893,2.893l0.353-0.389C33.167,27.038,34.5,23.589,34.5,20&#10;&#9;&#9;c0-1.174-0.146-2.349-0.433-3.5h4.095c0.225,1.167,0.338,2.343,0.338,3.5c0,4.673-1.759,9.138-4.953,12.572l-0.328,0.353&#10;&#9;&#9;l2.574,2.575H27.5z"/>
	<path style="fill:#5E9C76;" d="M37.744,17C37.914,18.002,38,19.008,38,20c0,4.546-1.712,8.89-4.819,12.232l-0.657,0.706&#10;&#9;&#9;l0.682,0.682l1.38,1.38H28v-6.586l1.668,1.668l0.743,0.743l0.705-0.779C33.621,27.282,35,23.714,35,20c0-1.005-0.103-2.009-0.306-3&#10;&#9;&#9;H37.744 M38.57,16h-5.158C33.79,17.268,34,18.609,34,20c0,3.612-1.377,6.894-3.625,9.375L27,26v10h10l-3.087-3.087&#10;&#9;&#9;C37.064,29.525,39,24.993,39,20C39,18.627,38.847,17.291,38.57,16L38.57,16z"/>
</g>
<g>
	<path style="fill:#BAE0BD;" d="M20,38.5c-4.673,0-9.139-1.759-12.572-4.954l-0.354-0.328L4.5,35.793V27.5h8.293L9.9,30.393&#10;&#9;&#9;l0.389,0.353C12.962,33.167,16.411,34.5,20,34.5c1.174,0,2.348-0.146,3.5-0.433v4.094C22.332,38.386,21.156,38.5,20,38.5z"/>
	<path style="fill:#5E9C76;" d="M11.586,28l-1.668,1.668l-0.743,0.743l0.779,0.705C12.718,33.621,16.286,35,20,35&#10;&#9;&#9;c1.005,0,2.009-0.103,3-0.306v3.05C21.998,37.914,20.992,38,20,38c-4.546,0-8.89-1.712-12.232-4.819l-0.706-0.657L6.38,33.206&#10;&#9;&#9;L5,34.586V28H11.586 M14,27H4v10l3.087-3.087C10.475,37.064,15.007,39,20,39c1.373,0,2.709-0.153,4-0.43v-5.158&#10;&#9;&#9;C22.732,33.79,21.391,34,20,34c-3.612,0-6.894-1.377-9.375-3.625L14,27L14,27z"/>
</g>
</svg>